<?xml version="1.0" standalone="no"?>
<!DOCTYPE svg PUBLIC "-//W3C//DTD SVG 20010904//EN"
 "http://www.w3.org/TR/2001/REC-SVG-20010904/DTD/svg10.dtd">
<svg version="1.0" xmlns="http://www.w3.org/2000/svg"
 width="512.000000pt" height="512.000000pt" viewBox="0 0 512.000000 512.000000"
 preserveAspectRatio="xMidYMid meet">
<metadata>
Created by potrace 1.14, written by Peter Selinger 2001-2017
</metadata>
<g transform="translate(0.000000,512.000000) scale(0.100000,-0.100000)"
fill="#000000" stroke="none">
<path d="M2478 4885 c-1 -1 -21 -5 -43 -8 -60 -8 -113 -26 -186 -62 -210 -106
-355 -295 -410 -535 -19 -85 -17 -299 6 -415 3 -16 10 -55 16 -85 39 -205 173
-460 305 -581 75 -69 176 -126 279 -157 11 -3 67 -6 125 -6 82 1 118 5 164 22
180 65 340 228 443 450 39 85 88 242 98 312 3 25 8 52 10 60 7 25 17 131 19
207 9 273 -119 526 -345 682 -56 38 -169 89 -218 97 -14 3 -40 9 -58 13 -29 8
-197 13 -205 6z m-311 -500 c55 -22 171 -55 248 -70 60 -12 243 -15 301 -4 72
13 152 41 209 75 l43 24 43 -82 c49 -93 85 -176 96 -222 4 -17 8 -34 9 -38 1
-5 2 -29 3 -54 l1 -45 41 48 c61 71 60 73 44 -54 -3 -24 -8 -64 -11 -90 -16
-137 -92 -334 -175 -456 -138 -202 -350 -305 -544 -265 -138 28 -284 139 -381
289 -50 77 -109 205 -118 251 -2 15 -8 32 -11 38 -9 14 -46 222 -41 228 2 2
24 -5 48 -16 l44 -19 -3 166 c-2 142 0 174 16 221 16 43 58 100 75 100 1 0 30
-11 63 -25z"/>
<path d="M1824 3125 c-172 -44 -314 -124 -440 -249 -72 -71 -187 -231 -181
-250 4 -12 1047 -17 1047 -5 0 3 -36 64 -81 135 -95 152 -175 306 -184 357 -7
33 -10 37 -39 37 -17 -1 -72 -12 -122 -25z"/>
<path d="M3150 3133 c0 -43 -111 -239 -237 -417 -35 -49 -63 -92 -63 -96 0 -3
243 -6 540 -6 297 0 540 3 540 6 0 14 -74 127 -120 184 -135 166 -333 287
-543 330 -99 21 -117 20 -117 -1z"/>
<path d="M2346 2907 c9 -43 48 -102 85 -129 30 -22 30 -25 27 -93 l-3 -70 90
0 90 0 -3 67 -2 67 53 53 c39 39 56 64 61 92 4 21 6 40 4 42 -2 2 -24 -4 -48
-13 -72 -26 -202 -28 -288 -5 l-73 20 7 -31z"/>
<path d="M759 2547 c-55 -27 -98 -90 -101 -144 0 -22 6 -70 15 -109 14 -60 92
-414 103 -469 2 -11 7 -36 10 -55 4 -19 9 -44 11 -55 2 -11 6 -31 9 -45 3 -14
9 -41 14 -60 5 -19 11 -48 14 -65 3 -16 15 -73 26 -125 12 -52 23 -104 25
-115 9 -41 107 -501 111 -520 2 -11 6 -31 9 -45 27 -146 36 -169 77 -206 55
-51 -8 -48 1263 -50 655 -1 1192 -3 1195 -4 3 -1 10 -1 15 0 6 2 100 4 210 4
209 2 224 5 273 50 34 30 54 73 63 131 4 28 10 59 12 70 3 11 13 56 22 100 9
44 18 87 20 95 2 8 20 94 40 190 20 96 38 182 40 190 11 47 37 169 41 190 3
14 10 45 15 70 6 25 13 56 15 70 2 14 11 57 20 95 15 67 80 374 90 425 3 14
15 72 28 130 14 65 20 117 15 137 -9 47 -55 102 -103 124 -40 18 -102 19
-1797 19 l-1755 0 -45 -23z"/>
<path d="M974 415 c-29 -29 -31 -74 -5 -106 l19 -24 1572 0 1572 0 19 24 c26
31 25 83 -2 107 -21 18 -62 19 -1586 21 l-1566 1 -23 -23z"/>
</g>
</svg>
